<svg width="69" height="69" viewBox="0 0 69 69" fill="none" xmlns="http://www.w3.org/2000/svg">
<g clip-path="url(#clip0_187_229)">
<path d="M55.1667 21.4887C53.8583 21.4892 52.5571 21.6817 51.3046 22.0599C51.3142 21.8682 51.3333 21.6823 51.3333 21.4887C51.3315 18.7045 50.3193 16.0155 48.4848 13.9212C46.6502 11.8268 44.1179 10.4694 41.3581 10.1011C38.5984 9.73273 35.7987 10.3784 33.4791 11.9183C31.1594 13.4581 29.4774 15.7875 28.7454 18.4738C27.3951 17.9339 25.9543 17.6561 24.5 17.6554C21.45 17.6554 18.5249 18.867 16.3683 21.0237C14.2116 23.1803 13 26.1054 13 29.1554C13 32.2054 14.2116 35.1304 16.3683 37.2871C18.5249 39.4438 21.45 40.6554 24.5 40.6554C27.0234 40.6537 29.4763 39.8219 31.4801 38.2881C33.4839 36.7543 34.9274 34.6038 35.5879 32.1684C36.9381 32.7089 38.3789 32.9873 39.8333 32.9887C40.5521 32.9887 41.2517 32.914 41.934 32.7894C41.8228 33.4794 41.75 34.1828 41.75 34.9054C41.75 42.3133 47.7588 48.322 55.1667 48.322C62.5746 48.322 68.5833 42.3133 68.5833 34.9054C68.5833 31.3471 67.1698 27.9345 64.6537 25.4184C62.1376 22.9023 58.725 21.4887 55.1667 21.4887Z" fill="#DBDBDB"/>
<path d="M59.4167 42.1667C58.5216 42.1667 57.6725 42.3296 56.8503 42.5577C57.2643 41.5495 57.5 40.4493 57.5 39.2917C57.5 37.0042 56.5913 34.8104 54.9738 33.1929C53.3563 31.5754 51.1625 30.6667 48.875 30.6667C47.0026 30.6721 45.1838 31.2923 43.6981 32.4319C43.0248 29.7391 41.4711 27.3484 39.2837 25.6396C37.0964 23.9307 34.4008 23.0017 31.625 23C29.0421 23.0014 26.5236 23.8059 24.4182 25.3021C22.3128 26.7983 20.7247 28.9122 19.874 31.3509C17.7657 30.6991 15.5415 30.5099 13.3535 30.7965C11.1654 31.0831 9.06495 31.8385 7.19563 33.0113C5.32631 34.1841 3.73217 35.7466 2.52209 37.592C1.31201 39.4374 0.514522 41.5222 0.184095 43.7041C-0.146332 45.886 -0.00190819 48.1134 0.6075 50.2344C1.21691 52.3553 2.27694 54.3197 3.71518 55.9934C5.15343 57.6671 6.93599 59.0106 8.9411 59.9322C10.9462 60.8538 13.1266 61.3317 15.3334 61.3333H59.4167C64.7105 61.3333 69 57.0438 69 51.75C69 46.4562 64.7105 42.1667 59.4167 42.1667Z" fill="#CED4D8"/>
</g>
<defs>
<clipPath id="clip0_187_229">
<rect width="69" height="69" fill="white"/>
</clipPath>
</defs>
</svg>
