<svg width="28" height="22" viewBox="0 0 28 22" fill="none" xmlns="http://www.w3.org/2000/svg">
<path d="M13.3285 1.10862C13.7095 0.763244 14.2905 0.763244 14.6715 1.10862L24.2034 9.74741C24.8812 10.3617 24.4466 11.4884 23.5319 11.4884H4.46813C3.55335 11.4884 3.11877 10.3617 3.79659 9.74741L13.3285 1.10862Z" fill="#3E4346"/>
<path fill-rule="evenodd" clip-rule="evenodd" d="M8 6.84906C7.44772 6.84906 7 7.29678 7 7.84906V20.5002C7 21.0525 7.44772 21.5002 8 21.5002H20C20.5523 21.5002 21 21.0525 21 20.5002V7.84906C21 7.29678 20.5523 6.84906 20 6.84906H8ZM16.3853 17.1317V17.1319V21.5001H11.6668V17.1319V17.1317C11.6668 15.7681 12.7231 14.6627 14.026 14.6627C15.329 14.6627 16.3853 15.7681 16.3853 17.1317Z" fill="#3E4346"/>
</svg>
