<svg width="55" height="49" viewBox="0 0 55 49" fill="none" xmlns="http://www.w3.org/2000/svg">
<path d="M5.5 5.83333H13.75L19.25 0.5H35.75L41.25 5.83333H49.5C50.9587 5.83333 52.3576 6.39524 53.3891 7.39543C54.4205 8.39562 55 9.75218 55 11.1667V43.1667C55 44.5812 54.4205 45.9377 53.3891 46.9379C52.3576 47.9381 50.9587 48.5 49.5 48.5H5.5C4.04131 48.5 2.64236 47.9381 1.61091 46.9379C0.579462 45.9377 0 44.5812 0 43.1667V11.1667C0 9.75218 0.579462 8.39562 1.61091 7.39543C2.64236 6.39524 4.04131 5.83333 5.5 5.83333ZM27.5 13.8333C23.8533 13.8333 20.3559 15.2381 17.7773 17.7386C15.1987 20.2391 13.75 23.6304 13.75 27.1667C13.75 30.7029 15.1987 34.0943 17.7773 36.5948C20.3559 39.0952 23.8533 40.5 27.5 40.5C31.1467 40.5 34.6441 39.0952 37.2227 36.5948C39.8013 34.0943 41.25 30.7029 41.25 27.1667C41.25 23.6304 39.8013 20.2391 37.2227 17.7386C34.6441 15.2381 31.1467 13.8333 27.5 13.8333ZM27.5 19.1667C29.688 19.1667 31.7865 20.0095 33.3336 21.5098C34.8808 23.0101 35.75 25.0449 35.75 27.1667C35.75 29.2884 34.8808 31.3232 33.3336 32.8235C31.7865 34.3238 29.688 35.1667 27.5 35.1667C25.312 35.1667 23.2135 34.3238 21.6664 32.8235C20.1192 31.3232 19.25 29.2884 19.25 27.1667C19.25 25.0449 20.1192 23.0101 21.6664 21.5098C23.2135 20.0095 25.312 19.1667 27.5 19.1667Z" fill="#666666"/>
</svg>
