<svg width="49" height="50" viewBox="0 0 49 50" fill="none" xmlns="http://www.w3.org/2000/svg">
<path d="M10.2083 39.2916V47.4583H46.9583V12.6887H38.7917M4.08332 37.25L14.2917 25L20.4167 31.125L28.5833 20.9166L38.7917 33.1666M2.04166 2.54163H38.7917V39.2916H2.04166V2.54163ZM12.25 16.8333C12.7915 16.8333 13.3108 16.6182 13.6937 16.2353C14.0766 15.8524 14.2917 15.3331 14.2917 14.7916C14.2917 14.2501 14.0766 13.7308 13.6937 13.348C13.3108 12.9651 12.7915 12.75 12.25 12.75C11.7085 12.75 11.1892 12.9651 10.8063 13.348C10.4234 13.7308 10.2083 14.2501 10.2083 14.7916C10.2083 15.3331 10.4234 15.8524 10.8063 16.2353C11.1892 16.6182 11.7085 16.8333 12.25 16.8333Z" stroke="#666666" stroke-width="2"/>
</svg>
